<svg width="77" height="77" viewBox="0 0 77 77" fill="none" xmlns="http://www.w3.org/2000/svg">
<path d="M61.2178 1.24634H15.7197C7.67874 1.24634 1.16028 7.76473 1.16028 15.8056V61.3031C1.16028 69.344 7.67874 75.8624 15.7197 75.8624H61.2178C69.2587 75.8624 75.7771 69.344 75.7771 61.3031V15.8056C75.7771 7.76473 69.2587 1.24634 61.2178 1.24634Z" fill="url(#paint0_linear_2044_4116)" fill-opacity="0.05"/>
<path d="M61.2178 1.24634H15.7197C7.67874 1.24634 1.16028 7.76473 1.16028 15.8056V61.3031C1.16028 69.344 7.67874 75.8624 15.7197 75.8624H61.2178C69.2587 75.8624 75.7771 69.344 75.7771 61.3031V15.8056C75.7771 7.76473 69.2587 1.24634 61.2178 1.24634Z" stroke="#252527" stroke-linecap="round"/>
<g filter="url(#filter0_ddi_2044_4116)">
<path d="M54.848 11.2559H22.0894C16.0587 11.2559 11.1699 16.1447 11.1699 22.1753V54.9335C11.1699 60.9642 16.0587 65.853 22.0894 65.853H54.848C60.8787 65.853 65.7676 60.9642 65.7676 54.9335V22.1753C65.7676 16.1447 60.8787 11.2559 54.848 11.2559Z" fill="url(#paint1_linear_2044_4116)"/>
<path d="M54.848 11.2559H22.0894C16.0587 11.2559 11.1699 16.1447 11.1699 22.1753V54.9335C11.1699 60.9642 16.0587 65.853 22.0894 65.853H54.848C60.8787 65.853 65.7676 60.9642 65.7676 54.9335V22.1753C65.7676 16.1447 60.8787 11.2559 54.848 11.2559Z" fill="black" fill-opacity="0.1"/>
<mask id="mask0_2044_4116" style="mask-type:luminance" maskUnits="userSpaceOnUse" x="25" y="29" width="27" height="20">
<path d="M51.0578 29.0127H25.8792V48.0955H51.0578V29.0127Z" fill="white"/>
</mask>
<g mask="url(#mask0_2044_4116)">
<g filter="url(#filter1_i_2044_4116)">
<path d="M47.2078 30.6115C45.5535 29.8535 43.8073 29.3166 42.0137 29.0127C41.768 29.4522 41.546 29.9035 41.3476 30.3658C39.4367 30.0773 37.494 30.0773 35.583 30.3658C35.3856 29.9035 35.1626 29.4522 34.9179 29.0127C33.1225 29.3193 31.3754 29.858 29.7193 30.6151C26.4316 35.4788 25.5407 40.2215 25.9866 44.8977C27.9111 46.32 30.0659 47.4019 32.3572 48.0962C32.8732 47.4019 33.3291 46.6658 33.7212 45.8959C32.9769 45.6175 32.258 45.2744 31.5728 44.8695C31.753 44.7394 31.9296 44.6047 32.0997 44.4737C34.0925 45.4109 36.2664 45.8969 38.4685 45.8969C40.6706 45.8969 42.8454 45.4109 44.8373 44.4737C45.0093 44.6147 45.1859 44.7494 45.3642 44.8695C44.6781 45.2744 43.9574 45.6184 43.2113 45.8978C43.6034 46.6676 44.0593 47.4028 44.5762 48.0962C46.8693 47.4046 49.025 46.3236 50.9505 44.8995C51.4737 39.4771 50.0578 34.7782 47.2078 30.6115ZM34.2863 42.0223C33.0442 42.0223 32.0187 40.8948 32.0187 39.509C32.0187 38.1231 33.0087 36.9857 34.2818 36.9857C35.5557 36.9857 36.5731 38.1231 36.5512 39.509C36.5294 40.8948 35.5512 42.0223 34.2863 42.0223ZM42.6507 42.0223C41.4077 42.0223 40.3858 40.8948 40.3858 39.509C40.3858 38.1231 41.3759 36.9857 42.6507 36.9857C43.9265 36.9857 44.9366 38.1231 44.9147 39.509C44.8929 40.8948 43.9165 42.0223 42.6507 42.0223Z" fill="white"/>
<path d="M47.2078 30.6115C45.5535 29.8535 43.8073 29.3166 42.0137 29.0127C41.768 29.4522 41.546 29.9035 41.3476 30.3658C39.4367 30.0773 37.494 30.0773 35.583 30.3658C35.3856 29.9035 35.1626 29.4522 34.9179 29.0127C33.1225 29.3193 31.3754 29.858 29.7193 30.6151C26.4316 35.4788 25.5407 40.2215 25.9866 44.8977C27.9111 46.32 30.0659 47.4019 32.3572 48.0962C32.8732 47.4019 33.3291 46.6658 33.7212 45.8959C32.9769 45.6175 32.258 45.2744 31.5728 44.8695C31.753 44.7394 31.9296 44.6047 32.0997 44.4737C34.0925 45.4109 36.2664 45.8969 38.4685 45.8969C40.6706 45.8969 42.8454 45.4109 44.8373 44.4737C45.0093 44.6147 45.1859 44.7494 45.3642 44.8695C44.6781 45.2744 43.9574 45.6184 43.2113 45.8978C43.6034 46.6676 44.0593 47.4028 44.5762 48.0962C46.8693 47.4046 49.025 46.3236 50.9505 44.8995C51.4737 39.4771 50.0578 34.7782 47.2078 30.6115ZM34.2863 42.0223C33.0442 42.0223 32.0187 40.8948 32.0187 39.509C32.0187 38.1231 33.0087 36.9857 34.2818 36.9857C35.5557 36.9857 36.5731 38.1231 36.5512 39.509C36.5294 40.8948 35.5512 42.0223 34.2863 42.0223ZM42.6507 42.0223C41.4077 42.0223 40.3858 40.8948 40.3858 39.509C40.3858 38.1231 41.3759 36.9857 42.6507 36.9857C43.9265 36.9857 44.9366 38.1231 44.9147 39.509C44.8929 40.8948 43.9165 42.0223 42.6507 42.0223Z" fill="url(#paint2_linear_2044_4116)"/>
</g>
</g>
</g>
<defs>
<filter id="filter0_ddi_2044_4116" x="3.16986" y="5.25586" width="70.5977" height="70.5972" filterUnits="userSpaceOnUse" color-interpolation-filters="sRGB">
<feFlood flood-opacity="0" result="BackgroundImageFix"/>
<feColorMatrix in="SourceAlpha" type="matrix" values="0 0 0 0 0 0 0 0 0 0 0 0 0 0 0 0 0 0 127 0" result="hardAlpha"/>
<feOffset dy="2"/>
<feGaussianBlur stdDeviation="4"/>
<feColorMatrix type="matrix" values="0 0 0 0 0 0 0 0 0 0 0 0 0 0 0 0 0 0 0.2 0"/>
<feBlend mode="normal" in2="BackgroundImageFix" result="effect1_dropShadow_2044_4116"/>
<feColorMatrix in="SourceAlpha" type="matrix" values="0 0 0 0 0 0 0 0 0 0 0 0 0 0 0 0 0 0 127 0" result="hardAlpha"/>
<feOffset dy="1"/>
<feGaussianBlur stdDeviation="0.5"/>
<feColorMatrix type="matrix" values="0 0 0 0 0 0 0 0 0 0 0 0 0 0 0 0 0 0 0.1 0"/>
<feBlend mode="normal" in2="effect1_dropShadow_2044_4116" result="effect2_dropShadow_2044_4116"/>
<feBlend mode="normal" in="SourceGraphic" in2="effect2_dropShadow_2044_4116" result="shape"/>
<feColorMatrix in="SourceAlpha" type="matrix" values="0 0 0 0 0 0 0 0 0 0 0 0 0 0 0 0 0 0 127 0" result="hardAlpha"/>
<feOffset/>
<feGaussianBlur stdDeviation="2"/>
<feComposite in2="hardAlpha" operator="arithmetic" k2="-1" k3="1"/>
<feColorMatrix type="matrix" values="0 0 0 0 1 0 0 0 0 1 0 0 0 0 1 0 0 0 0.1 0"/>
<feBlend mode="normal" in2="shape" result="effect3_innerShadow_2044_4116"/>
</filter>
<filter id="filter1_i_2044_4116" x="25.8795" y="28.5127" width="25.1781" height="19.5835" filterUnits="userSpaceOnUse" color-interpolation-filters="sRGB">
<feFlood flood-opacity="0" result="BackgroundImageFix"/>
<feBlend mode="normal" in="SourceGraphic" in2="BackgroundImageFix" result="shape"/>
<feColorMatrix in="SourceAlpha" type="matrix" values="0 0 0 0 0 0 0 0 0 0 0 0 0 0 0 0 0 0 127 0" result="hardAlpha"/>
<feOffset dy="-0.5"/>
<feGaussianBlur stdDeviation="0.5"/>
<feComposite in2="hardAlpha" operator="arithmetic" k2="-1" k3="1"/>
<feColorMatrix type="matrix" values="0 0 0 0 0 0 0 0 0 0 0 0 0 0 0 0 0 0 0.45 0"/>
<feBlend mode="normal" in2="shape" result="effect1_innerShadow_2044_4116"/>
</filter>
<linearGradient id="paint0_linear_2044_4116" x1="73.5022" y1="39.4534" x2="6.17782" y2="33.4676" gradientUnits="userSpaceOnUse">
<stop stop-color="#1B1B1B"/>
<stop offset="1" stop-color="#323234"/>
</linearGradient>
<linearGradient id="paint1_linear_2044_4116" x1="38.4687" y1="27.635" x2="38.4687" y2="65.853" gradientUnits="userSpaceOnUse">
<stop stop-color="#1F1F21"/>
<stop offset="1" stop-color="#202022"/>
</linearGradient>
<linearGradient id="paint2_linear_2044_4116" x1="38.4685" y1="29.0127" x2="38.4685" y2="48.0962" gradientUnits="userSpaceOnUse">
<stop stop-color="white"/>
<stop offset="1" stop-color="#BABABA"/>
</linearGradient>
</defs>
</svg>
