<svg width="77" height="76" viewBox="0 0 77 76" fill="none" xmlns="http://www.w3.org/2000/svg">
<path d="M61.2178 0.710693H15.7197C7.67874 0.710693 1.16028 7.22908 1.16028 15.2699V60.7675C1.16028 68.8083 7.67874 75.3267 15.7197 75.3267H61.2178C69.2587 75.3267 75.7771 68.8083 75.7771 60.7675V15.2699C75.7771 7.22908 69.2587 0.710693 61.2178 0.710693Z" fill="url(#paint0_linear_2044_4117)" fill-opacity="0.05"/>
<path d="M61.2178 0.710693H15.7197C7.67874 0.710693 1.16028 7.22908 1.16028 15.2699V60.7675C1.16028 68.8083 7.67874 75.3267 15.7197 75.3267H61.2178C69.2587 75.3267 75.7771 68.8083 75.7771 60.7675V15.2699C75.7771 7.22908 69.2587 0.710693 61.2178 0.710693Z" fill="url(#paint1_radial_2044_4117)" fill-opacity="0.05"/>
<path d="M61.2178 0.710693H15.7197C7.67874 0.710693 1.16028 7.22908 1.16028 15.2699V60.7675C1.16028 68.8083 7.67874 75.3267 15.7197 75.3267H61.2178C69.2587 75.3267 75.7771 68.8083 75.7771 60.7675V15.2699C75.7771 7.22908 69.2587 0.710693 61.2178 0.710693Z" stroke="#252527" stroke-linecap="round"/>
<g filter="url(#filter0_ddi_2044_4117)">
<path d="M54.848 10.7202H22.0894C16.0587 10.7202 11.1699 15.609 11.1699 21.6396V54.3979C11.1699 60.4285 16.0587 65.3173 22.0894 65.3173H54.848C60.8787 65.3173 65.7676 60.4285 65.7676 54.3979V21.6396C65.7676 15.609 60.8787 10.7202 54.848 10.7202Z" fill="#252527"/>
<path d="M54.848 10.7202H22.0894C16.0587 10.7202 11.1699 15.609 11.1699 21.6396V54.3979C11.1699 60.4285 16.0587 65.3173 22.0894 65.3173H54.848C60.8787 65.3173 65.7676 60.4285 65.7676 54.3979V21.6396C65.7676 15.609 60.8787 10.7202 54.848 10.7202Z" fill="url(#paint2_linear_2044_4117)"/>
<path d="M54.848 10.7202H22.0894C16.0587 10.7202 11.1699 15.609 11.1699 21.6396V54.3979C11.1699 60.4285 16.0587 65.3173 22.0894 65.3173H54.848C60.8787 65.3173 65.7676 60.4285 65.7676 54.3979V21.6396C65.7676 15.609 60.8787 10.7202 54.848 10.7202Z" fill="black" fill-opacity="0.1"/>
<path d="M54.848 10.7202H22.0894C16.0587 10.7202 11.1699 15.609 11.1699 21.6396V54.3979C11.1699 60.4285 16.0587 65.3173 22.0894 65.3173H54.848C60.8787 65.3173 65.7676 60.4285 65.7676 54.3979V21.6396C65.7676 15.609 60.8787 10.7202 54.848 10.7202Z" fill="url(#paint3_radial_2044_4117)" fill-opacity="0.05"/>
<path d="M54.848 11.1753H22.0894C16.31 11.1753 11.6248 15.8604 11.6248 21.6397V54.398C11.6248 60.1774 16.31 64.8624 22.0894 64.8624H54.848C60.6274 64.8624 65.3126 60.1774 65.3126 54.398V21.6397C65.3126 15.8604 60.6274 11.1753 54.848 11.1753Z" stroke="url(#paint4_radial_2044_4117)" stroke-opacity="0.3"/>
<g filter="url(#filter1_i_2044_4117)">
<path d="M28.1877 42.4786C27.7782 42.0691 27.548 41.514 27.548 40.9344C27.548 40.3547 27.7782 39.7997 28.1877 39.3902C28.5972 38.9807 29.1531 38.7505 29.7319 38.7505H31.9158V40.9344C31.9158 41.514 31.6856 42.0691 31.2761 42.4786C30.8666 42.888 30.3115 43.1183 29.7319 43.1183C29.1531 43.1183 28.5972 42.888 28.1877 42.4786Z" fill="white"/>
<path d="M28.1877 42.4786C27.7782 42.0691 27.548 41.514 27.548 40.9344C27.548 40.3547 27.7782 39.7997 28.1877 39.3902C28.5972 38.9807 29.1531 38.7505 29.7319 38.7505H31.9158V40.9344C31.9158 41.514 31.6856 42.0691 31.2761 42.4786C30.8666 42.888 30.3115 43.1183 29.7319 43.1183C29.1531 43.1183 28.5972 42.888 28.1877 42.4786Z" fill="url(#paint5_linear_2044_4117)"/>
<path d="M34.0187 39.3902C34.4282 38.9807 34.9842 38.7505 35.5629 38.7505C36.1426 38.7505 36.6976 38.9807 37.1071 39.3902C37.5166 39.7997 37.7468 40.3547 37.7468 40.9344V46.7544C37.7468 47.3341 37.5166 47.8891 37.1071 48.2986C36.6976 48.7081 36.1426 48.9383 35.5629 48.9383C34.9842 48.9383 34.4282 48.7081 34.0187 48.2986C33.6092 47.8891 33.379 47.3341 33.379 46.7544V40.9344C33.379 40.3547 33.6092 39.7997 34.0187 39.3902Z" fill="white"/>
<path d="M34.0187 39.3902C34.4282 38.9807 34.9842 38.7505 35.5629 38.7505C36.1426 38.7505 36.6976 38.9807 37.1071 39.3902C37.5166 39.7997 37.7468 40.3547 37.7468 40.9344V46.7544C37.7468 47.3341 37.5166 47.8891 37.1071 48.2986C36.6976 48.7081 36.1426 48.9383 35.5629 48.9383C34.9842 48.9383 34.4282 48.7081 34.0187 48.2986C33.6092 47.8891 33.379 47.3341 33.379 46.7544V40.9344C33.379 40.3547 33.6092 39.7997 34.0187 39.3902Z" fill="url(#paint6_linear_2044_4117)"/>
<path d="M29.7319 32.9194H35.5629C36.1426 32.9194 36.6976 33.1497 37.1071 33.5591C37.5166 33.9686 37.7468 34.5237 37.7468 35.1033C37.7468 35.683 37.5166 36.238 37.1071 36.6475C36.6976 37.057 36.1426 37.2872 35.5629 37.2872H29.7319C29.1531 37.2872 28.5972 37.057 28.1877 36.6475C27.7782 36.238 27.548 35.683 27.548 35.1033C27.548 34.5237 27.7782 33.9686 28.1877 33.5591C28.5972 33.1497 29.1531 32.9194 29.7319 32.9194Z" fill="white"/>
<path d="M29.7319 32.9194H35.5629C36.1426 32.9194 36.6976 33.1497 37.1071 33.5591C37.5166 33.9686 37.7468 34.5237 37.7468 35.1033C37.7468 35.683 37.5166 36.238 37.1071 36.6475C36.6976 37.057 36.1426 37.2872 35.5629 37.2872H29.7319C29.1531 37.2872 28.5972 37.057 28.1877 36.6475C27.7782 36.238 27.548 35.683 27.548 35.1033C27.548 34.5237 27.7782 33.9686 28.1877 33.5591C28.5972 33.1497 29.1531 32.9194 29.7319 32.9194Z" fill="url(#paint7_linear_2044_4117)"/>
<path d="M34.0187 27.7391C34.4282 27.3296 34.9842 27.0994 35.5629 27.0994C36.1426 27.0994 36.6976 27.3296 37.1071 27.7391C37.5166 28.1485 37.7468 28.7036 37.7468 29.2832V31.4671H35.5629C34.9842 31.4671 34.4282 31.2369 34.0187 30.8274C33.6092 30.418 33.379 29.8629 33.379 29.2832C33.379 28.7036 33.6092 28.1485 34.0187 27.7391Z" fill="white"/>
<path d="M34.0187 27.7391C34.4282 27.3296 34.9842 27.0994 35.5629 27.0994C36.1426 27.0994 36.6976 27.3296 37.1071 27.7391C37.5166 28.1485 37.7468 28.7036 37.7468 29.2832V31.4671H35.5629C34.9842 31.4671 34.4282 31.2369 34.0187 30.8274C33.6092 30.418 33.379 29.8629 33.379 29.2832C33.379 28.7036 33.6092 28.1485 34.0187 27.7391Z" fill="url(#paint8_linear_2044_4117)"/>
<path d="M42.8963 36.6475C42.4868 37.057 41.9309 37.2872 41.3521 37.2872H41.3739C41.0855 37.2899 40.7989 37.2353 40.5313 37.127C40.2638 37.0188 40.0208 36.8586 39.8152 36.6557C39.6105 36.4518 39.4476 36.2107 39.3366 35.9441C39.2255 35.6775 39.1682 35.3918 39.1682 35.1033V29.2832C39.1682 28.7036 39.3984 28.1485 39.8079 27.7391C40.2174 27.3296 40.7725 27.0994 41.3521 27.0994C41.9309 27.0994 42.4868 27.3296 42.8963 27.7391C43.3058 28.1485 43.536 28.7036 43.536 29.2832V35.1033C43.536 35.6829 43.3058 36.238 42.8963 36.6475Z" fill="white"/>
<path d="M42.8963 36.6475C42.4868 37.057 41.9309 37.2872 41.3521 37.2872H41.3739C41.0855 37.2899 40.7989 37.2353 40.5313 37.127C40.2638 37.0188 40.0208 36.8586 39.8152 36.6557C39.6105 36.4518 39.4476 36.2107 39.3366 35.9441C39.2255 35.6775 39.1682 35.3918 39.1682 35.1033V29.2832C39.1682 28.7036 39.3984 28.1485 39.8079 27.7391C40.2174 27.3296 40.7725 27.0994 41.3521 27.0994C41.9309 27.0994 42.4868 27.3296 42.8963 27.7391C43.3058 28.1485 43.536 28.7036 43.536 29.2832V35.1033C43.536 35.6829 43.3058 36.238 42.8963 36.6475Z" fill="url(#paint9_linear_2044_4117)"/>
<path d="M48.7055 33.5591C49.115 33.9686 49.3452 34.5237 49.3452 35.1033H49.3889C49.3889 35.3936 49.3307 35.6811 49.2187 35.9496C49.1059 36.2171 48.9412 36.4601 48.7337 36.663C48.5263 36.8668 48.2806 37.027 48.0103 37.1334C47.74 37.2408 47.4516 37.2927 47.1613 37.2872H44.9774V35.1033C44.9774 34.5237 45.2076 33.9686 45.6171 33.5591C46.0266 33.1497 46.5817 32.9194 47.1613 32.9194C47.7401 32.9194 48.296 33.1497 48.7055 33.5591Z" fill="white"/>
<path d="M48.7055 33.5591C49.115 33.9686 49.3452 34.5237 49.3452 35.1033H49.3889C49.3889 35.3936 49.3307 35.6811 49.2187 35.9496C49.1059 36.2171 48.9412 36.4601 48.7337 36.663C48.5263 36.8668 48.2806 37.027 48.0103 37.1334C47.74 37.2408 47.4516 37.2927 47.1613 37.2872H44.9774V35.1033C44.9774 34.5237 45.2076 33.9686 45.6171 33.5591C46.0266 33.1497 46.5817 32.9194 47.1613 32.9194C47.7401 32.9194 48.296 33.1497 48.7055 33.5591Z" fill="url(#paint10_linear_2044_4117)"/>
<path d="M41.373 44.5705H39.1891V46.7544C39.1891 47.1867 39.3174 47.6089 39.5576 47.9674C39.7969 48.3268 40.1382 48.6071 40.5376 48.7718C40.9362 48.9374 41.3757 48.9811 41.7989 48.8964C42.2229 48.8118 42.6124 48.6044 42.9172 48.2986C43.223 47.9929 43.4313 47.6043 43.515 47.1803C43.5997 46.7571 43.556 46.3177 43.3913 45.9191C43.2257 45.5196 42.9454 45.1784 42.5869 44.9382C42.2275 44.6988 41.8052 44.5705 41.373 44.5705ZM47.204 38.7505H41.373C40.7943 38.7505 40.2383 38.9807 39.8288 39.3902C39.4193 39.7997 39.1891 40.3547 39.1891 40.9344C39.1891 41.514 39.4193 42.0691 39.8288 42.4786C40.2383 42.888 40.7943 43.1183 41.373 43.1183H47.204C47.7837 43.1183 48.3388 42.888 48.7482 42.4786C49.1577 42.0691 49.3879 41.514 49.3879 40.9344C49.3879 40.3547 49.1577 39.7997 48.7482 39.3902C48.3388 38.9807 47.7837 38.7505 47.204 38.7505Z" fill="white"/>
<path d="M41.373 44.5705H39.1891V46.7544C39.1891 47.1867 39.3174 47.6089 39.5576 47.9674C39.7969 48.3268 40.1382 48.6071 40.5376 48.7718C40.9362 48.9374 41.3757 48.9811 41.7989 48.8964C42.2229 48.8118 42.6124 48.6044 42.9172 48.2986C43.223 47.9929 43.4313 47.6043 43.515 47.1803C43.5997 46.7571 43.556 46.3177 43.3913 45.9191C43.2257 45.5196 42.9454 45.1784 42.5869 44.9382C42.2275 44.6988 41.8052 44.5705 41.373 44.5705ZM47.204 38.7505H41.373C40.7943 38.7505 40.2383 38.9807 39.8288 39.3902C39.4193 39.7997 39.1891 40.3547 39.1891 40.9344C39.1891 41.514 39.4193 42.0691 39.8288 42.4786C40.2383 42.888 40.7943 43.1183 41.373 43.1183H47.204C47.7837 43.1183 48.3388 42.888 48.7482 42.4786C49.1577 42.0691 49.3879 41.514 49.3879 40.9344C49.3879 40.3547 49.1577 39.7997 48.7482 39.3902C48.3388 38.9807 47.7837 38.7505 47.204 38.7505Z" fill="url(#paint11_linear_2044_4117)"/>
</g>
</g>
<defs>
<filter id="filter0_ddi_2044_4117" x="3.12482" y="4.67529" width="70.6877" height="70.6873" filterUnits="userSpaceOnUse" color-interpolation-filters="sRGB">
<feFlood flood-opacity="0" result="BackgroundImageFix"/>
<feColorMatrix in="SourceAlpha" type="matrix" values="0 0 0 0 0 0 0 0 0 0 0 0 0 0 0 0 0 0 127 0" result="hardAlpha"/>
<feOffset dy="2"/>
<feGaussianBlur stdDeviation="4"/>
<feColorMatrix type="matrix" values="0 0 0 0 0 0 0 0 0 0 0 0 0 0 0 0 0 0 0.2 0"/>
<feBlend mode="normal" in2="BackgroundImageFix" result="effect1_dropShadow_2044_4117"/>
<feColorMatrix in="SourceAlpha" type="matrix" values="0 0 0 0 0 0 0 0 0 0 0 0 0 0 0 0 0 0 127 0" result="hardAlpha"/>
<feOffset dy="1"/>
<feGaussianBlur stdDeviation="0.5"/>
<feColorMatrix type="matrix" values="0 0 0 0 0 0 0 0 0 0 0 0 0 0 0 0 0 0 0.1 0"/>
<feBlend mode="normal" in2="effect1_dropShadow_2044_4117" result="effect2_dropShadow_2044_4117"/>
<feBlend mode="normal" in="SourceGraphic" in2="effect2_dropShadow_2044_4117" result="shape"/>
<feColorMatrix in="SourceAlpha" type="matrix" values="0 0 0 0 0 0 0 0 0 0 0 0 0 0 0 0 0 0 127 0" result="hardAlpha"/>
<feOffset/>
<feGaussianBlur stdDeviation="2"/>
<feComposite in2="hardAlpha" operator="arithmetic" k2="-1" k3="1"/>
<feColorMatrix type="matrix" values="0 0 0 0 1 0 0 0 0 1 0 0 0 0 1 0 0 0 0.1 0"/>
<feBlend mode="normal" in2="shape" result="effect3_innerShadow_2044_4117"/>
</filter>
<filter id="filter1_i_2044_4117" x="27.548" y="26.5994" width="21.8409" height="22.3391" filterUnits="userSpaceOnUse" color-interpolation-filters="sRGB">
<feFlood flood-opacity="0" result="BackgroundImageFix"/>
<feBlend mode="normal" in="SourceGraphic" in2="BackgroundImageFix" result="shape"/>
<feColorMatrix in="SourceAlpha" type="matrix" values="0 0 0 0 0 0 0 0 0 0 0 0 0 0 0 0 0 0 127 0" result="hardAlpha"/>
<feOffset dy="-0.5"/>
<feGaussianBlur stdDeviation="0.5"/>
<feComposite in2="hardAlpha" operator="arithmetic" k2="-1" k3="1"/>
<feColorMatrix type="matrix" values="0 0 0 0 0 0 0 0 0 0 0 0 0 0 0 0 0 0 0.45 0"/>
<feBlend mode="normal" in2="shape" result="effect1_innerShadow_2044_4117"/>
</filter>
<linearGradient id="paint0_linear_2044_4117" x1="73.5022" y1="38.9177" x2="6.17782" y2="32.932" gradientUnits="userSpaceOnUse">
<stop stop-color="#1B1B1B"/>
<stop offset="1" stop-color="#323234"/>
</linearGradient>
<radialGradient id="paint1_radial_2044_4117" cx="0" cy="0" r="1" gradientUnits="userSpaceOnUse" gradientTransform="translate(1.16028 38.0187) scale(34.1236 54.9923)">
<stop stop-color="#24E989"/>
<stop offset="1" stop-opacity="0"/>
</radialGradient>
<linearGradient id="paint2_linear_2044_4117" x1="38.4687" y1="27.0993" x2="38.4687" y2="65.3173" gradientUnits="userSpaceOnUse">
<stop stop-color="#1F1F21"/>
<stop offset="1" stop-color="#202022"/>
</linearGradient>
<radialGradient id="paint3_radial_2044_4117" cx="0" cy="0" r="1" gradientUnits="userSpaceOnUse" gradientTransform="translate(2.07024 30.7392) rotate(17.9277) scale(32.5175 39.4714)">
<stop stop-color="#24FF95"/>
<stop offset="1" stop-color="#24FF95" stop-opacity="0"/>
</radialGradient>
<radialGradient id="paint4_radial_2044_4117" cx="0" cy="0" r="1" gradientUnits="userSpaceOnUse" gradientTransform="translate(7.07501 33.4691) rotate(10.3047) scale(30.521 23.5224)">
<stop stop-color="#A8FFD5"/>
<stop offset="1" stop-color="#BDFFDF" stop-opacity="0"/>
</radialGradient>
<linearGradient id="paint5_linear_2044_4117" x1="38.4685" y1="27.0995" x2="38.4685" y2="48.9383" gradientUnits="userSpaceOnUse">
<stop stop-color="white"/>
<stop offset="1" stop-color="#BABABA"/>
</linearGradient>
<linearGradient id="paint6_linear_2044_4117" x1="38.4684" y1="27.0995" x2="38.4684" y2="48.9383" gradientUnits="userSpaceOnUse">
<stop stop-color="white"/>
<stop offset="1" stop-color="#BABABA"/>
</linearGradient>
<linearGradient id="paint7_linear_2044_4117" x1="38.4684" y1="27.0994" x2="38.4684" y2="48.9382" gradientUnits="userSpaceOnUse">
<stop stop-color="white"/>
<stop offset="1" stop-color="#BABABA"/>
</linearGradient>
<linearGradient id="paint8_linear_2044_4117" x1="38.4684" y1="27.0994" x2="38.4684" y2="48.9382" gradientUnits="userSpaceOnUse">
<stop stop-color="white"/>
<stop offset="1" stop-color="#BABABA"/>
</linearGradient>
<linearGradient id="paint9_linear_2044_4117" x1="38.4685" y1="27.0994" x2="38.4685" y2="48.9382" gradientUnits="userSpaceOnUse">
<stop stop-color="white"/>
<stop offset="1" stop-color="#BABABA"/>
</linearGradient>
<linearGradient id="paint10_linear_2044_4117" x1="38.4685" y1="27.0994" x2="38.4685" y2="48.9382" gradientUnits="userSpaceOnUse">
<stop stop-color="white"/>
<stop offset="1" stop-color="#BABABA"/>
</linearGradient>
<linearGradient id="paint11_linear_2044_4117" x1="38.4684" y1="27.0995" x2="38.4684" y2="48.9383" gradientUnits="userSpaceOnUse">
<stop stop-color="white"/>
<stop offset="1" stop-color="#BABABA"/>
</linearGradient>
</defs>
</svg>
