<svg width="23" height="22" viewBox="0 0 23 22" fill="none" xmlns="http://www.w3.org/2000/svg">
<path d="M11.488 0.752975L11.488 0.752974C5.77796 0.653307 1.06825 5.20132 0.968582 10.9113L0.968581 10.9113C0.868912 16.6213 5.41703 21.3309 11.127 21.4306L11.1271 21.4306C16.8371 21.5302 21.5467 16.9822 21.6464 11.2723L21.6464 11.2722C21.7461 5.56225 17.198 0.852642 11.488 0.752975Z" fill="url(#paint0_linear_2062_4115)"/>
<path d="M11.488 0.752975L11.488 0.752974C5.77796 0.653307 1.06825 5.20132 0.968582 10.9113L0.968581 10.9113C0.868912 16.6213 5.41703 21.3309 11.127 21.4306L11.1271 21.4306C16.8371 21.5302 21.5467 16.9822 21.6464 11.2723L21.6464 11.2722C21.7461 5.56225 17.198 0.852642 11.488 0.752975Z" stroke="url(#paint1_radial_2062_4115)" stroke-width="0.988142"/>
<path d="M6.58591 6.81286C6.25468 6.80649 5.98167 7.07038 5.9753 7.4016C5.96984 7.73282 6.23374 8.0058 6.56497 8.01126L16.1541 8.17869C16.4853 8.18415 16.7584 7.92027 16.7638 7.58996C16.7702 7.25874 16.5063 6.98575 16.175 6.98029L6.58591 6.81286Z" fill="white"/>
<path d="M14.8801 9.71847C14.7891 9.49644 14.5753 9.34994 14.335 9.3463C14.0957 9.34175 13.8764 9.48097 13.7782 9.69936L12.941 11.5629L11.0492 12.3346C10.8271 12.4256 10.6806 12.6394 10.6761 12.8796C10.6725 13.119 10.8117 13.3383 11.03 13.4365L12.8937 14.2737L13.6653 16.1655C13.7554 16.3875 13.9702 16.534 14.2095 16.5386C14.4497 16.5422 14.669 16.403 14.7673 16.1846L15.6045 14.321L17.4953 13.5494C17.7173 13.4593 17.8648 13.2445 17.8684 13.0052C17.873 12.765 17.7338 12.5457 17.5154 12.4474L15.6517 11.6103L14.8801 9.71847Z" fill="white"/>
<path d="M6.52311 10.409C6.19188 10.4027 5.91893 10.6666 5.91256 10.9978C5.9071 11.3281 6.17094 11.602 6.50217 11.6075L9.4987 11.6593C9.82992 11.6657 10.1029 11.4018 10.1084 11.0706C10.1138 10.7394 9.85086 10.4664 9.51964 10.4609L6.52311 10.409Z" fill="white"/>
<path d="M6.46029 14.0052C6.12907 13.9989 5.85604 14.2628 5.85058 14.594C5.84421 14.9243 6.10813 15.1973 6.43935 15.2036L8.23745 15.2346C8.56776 15.241 8.84074 14.9771 8.84711 14.6458C8.85257 14.3146 8.58865 14.0416 8.25833 14.0362L6.46029 14.0052Z" fill="white"/>
<defs>
<linearGradient id="paint0_linear_2062_4115" x1="11.5035" y1="0.295471" x2="11.1269" y2="21.8726" gradientUnits="userSpaceOnUse">
<stop stop-color="#C495FF"/>
<stop offset="1" stop-color="#BF68CF"/>
</linearGradient>
<radialGradient id="paint1_radial_2062_4115" cx="0" cy="0" r="1" gradientUnits="userSpaceOnUse" gradientTransform="translate(10.5873 0.279478) rotate(88.5684) scale(21.5993 23.6662)">
<stop stop-color="white" stop-opacity="0.48"/>
<stop offset="1" stop-color="white" stop-opacity="0.04"/>
</radialGradient>
</defs>
</svg>
